<svg width="20" height="20" viewBox="0 0 20 20" fill="none" xmlns="http://www.w3.org/2000/svg">
<path fill-rule="evenodd" clip-rule="evenodd" d="M5.22739 0.689434C3.87242 0.844412 2.71385 1.42565 1.76754 2.42519C1.01289 3.2223 0.551996 4.11408 0.31227 5.24109C0.192082 5.80619 0.192235 6.89599 0.312614 7.46206C0.538182 8.52274 0.969421 9.38918 1.67578 10.201L1.97118 10.5405L1.83305 10.7041C1.2763 11.3635 1.25724 12.3995 1.78801 13.1536C2.06845 13.5521 2.47707 13.814 2.99846 13.9296C3.0844 13.9486 3.09496 13.9716 3.10239 14.1561C3.14203 15.1398 3.87311 15.9269 4.87647 16.0662L5.05172 16.0905L5.09596 16.3316C5.22005 17.0082 5.7678 17.6229 6.43651 17.8363C6.66969 17.9107 7.08222 17.9376 7.42885 17.9009C7.50209 17.8931 7.53068 17.9273 7.6051 18.1115C7.95143 18.969 8.90555 19.4839 9.79638 19.294C10.2972 19.1873 10.4628 19.08 11.0572 18.4776C11.6666 17.8599 11.8073 17.6326 11.8907 17.1305L11.9383 16.8442L12.1594 16.816C12.4934 16.7735 12.9066 16.5541 13.1977 16.2648C13.4844 15.9798 13.6941 15.5776 13.7603 15.1856L13.8023 14.9375L14.0646 14.8918C14.5566 14.8063 15.0449 14.4861 15.3355 14.0583C15.5071 13.8058 15.6639 13.3866 15.6639 13.1806C15.6639 13.02 15.7051 12.9843 15.8907 12.9843C16.0283 12.9843 16.4004 12.8537 16.5984 12.7359C16.8379 12.5934 17.0962 12.3468 17.2466 12.117C17.416 11.8583 17.5772 11.3813 17.5772 11.1385C17.5772 10.9556 17.5783 10.954 18.0854 10.4277C18.9931 9.48566 19.4669 8.59408 19.7063 7.37734C19.8016 6.89301 19.8016 5.80844 19.7063 5.32411C19.4699 4.12246 18.9801 3.19045 18.1344 2.33317C17.4487 1.63796 16.8079 1.23517 15.9189 0.940541C14.7752 0.561573 13.4779 0.576431 12.3295 0.981701C11.5748 1.24801 10.8862 1.66903 10.326 2.20667L10.0008 2.51868L9.68235 2.21307C8.69808 1.2685 7.4142 0.728227 6.02134 0.672482C5.75827 0.661969 5.401 0.669572 5.22739 0.689434ZM14.9561 1.99187C16.5546 2.29923 17.9368 3.59025 18.3992 5.20777C18.6695 6.15362 18.5857 7.21212 18.168 8.12887C17.9919 8.51521 17.6032 9.10215 17.316 9.41536L17.0848 9.66752L14.7386 7.29378L12.3923 4.92004L12.068 5.23422C11.4368 5.8456 10.8134 5.98642 10.1279 5.67247C10.0095 5.61819 9.80947 5.46411 9.63051 5.28927L9.3312 4.99681L10.1348 4.17793C11.3001 2.99024 11.6997 2.6631 12.3876 2.33325C13.2199 1.93418 14.0691 1.82134 14.9561 1.99187ZM6.44225 1.98551C7.07759 2.08462 7.56783 2.2597 8.08769 2.57322C8.38921 2.75504 8.97837 3.23995 9.05972 3.37329C9.09507 3.43116 8.98801 3.55581 8.3255 4.22809L7.54988 5.01512L8.21098 5.67619C8.96704 6.43226 9.18373 6.61409 9.55382 6.80305C10.3102 7.18923 11.3077 7.18884 12.0725 6.80204L12.3278 6.67294L14.2811 8.65514C15.356 9.746 16.2524 10.6865 16.2744 10.7465C16.4772 11.2999 15.9897 11.8534 15.4309 11.7042C15.2804 11.6641 15.1048 11.5 13.8075 10.1882C13.0074 9.37905 12.3361 8.71709 12.3158 8.71709C12.2666 8.71709 11.4549 9.53884 11.4549 9.58861C11.4549 9.60995 12.1078 10.291 12.9059 11.1022C14.2032 12.4208 14.3616 12.5952 14.4016 12.749C14.4818 13.0579 14.3645 13.3625 14.0999 13.5327C13.9129 13.6529 13.6616 13.6805 13.4567 13.6032C13.3974 13.5809 12.6903 12.8958 11.8853 12.0808L10.4217 10.5989L9.97232 11.0546L9.52291 11.5102L10.9846 12.994C11.7885 13.8101 12.4642 14.527 12.4862 14.587C12.6417 15.0111 12.3648 15.4966 11.9275 15.5667C11.7089 15.6017 11.54 15.536 11.256 15.3055C10.7793 14.9187 10.3695 14.7843 9.78081 14.8217C9.51518 14.8387 9.42686 14.8324 9.42682 14.7968C9.42675 14.6833 9.19315 14.2666 9.02115 14.0732C8.68304 13.6931 8.13204 13.411 7.72785 13.411H7.56745L7.52616 13.1666C7.42296 12.5558 7.00152 12.0122 6.4049 11.7204C6.30101 11.6696 6.14493 11.6165 6.058 11.6024C5.9711 11.5883 5.89495 11.5574 5.88879 11.5338C5.88263 11.5101 5.85853 11.3424 5.83518 11.161C5.67011 9.87758 4.2631 9.06014 3.12676 9.58753L2.92591 9.68079L2.66078 9.39783C1.24217 7.88374 1.06925 5.48859 2.25671 3.80152C3.21492 2.44016 4.83917 1.73541 6.44225 1.98551ZM4.13751 10.7556C4.32662 10.8357 4.44776 10.9539 4.53324 11.1417C4.69066 11.4875 4.60698 11.7173 4.15439 12.1822C3.77002 12.577 3.61211 12.674 3.35332 12.674C2.83423 12.674 2.50007 12.1288 2.72736 11.6527C2.83519 11.4269 3.48182 10.7904 3.65462 10.7399C3.84537 10.6843 3.97948 10.6886 4.13751 10.7556ZM5.89889 12.8839C6.01794 12.9469 6.18289 13.1187 6.24844 13.2478C6.31448 13.3779 6.30614 13.6929 6.23244 13.8503C6.1315 14.0659 5.44952 14.715 5.27109 14.7652C5.06339 14.8237 4.95491 14.817 4.77618 14.7347C4.4535 14.5861 4.29543 14.2558 4.37865 13.9041C4.41742 13.7402 4.47573 13.6544 4.73528 13.379C5.1457 12.9437 5.3239 12.8291 5.59068 12.8291C5.70336 12.8291 5.84203 12.8538 5.89889 12.8839ZM7.88887 14.7598C8.1307 14.872 8.30622 15.2319 8.25487 15.5103C8.21702 15.7154 8.11666 15.8539 7.73367 16.2295C7.32592 16.6294 7.15037 16.7088 6.85183 16.6283C6.51262 16.5368 6.32745 16.2918 6.32745 15.9345C6.32745 15.6706 6.39675 15.5456 6.74385 15.1833C7.23945 14.666 7.48836 14.574 7.88887 14.7598ZM10.3733 16.2287C10.4526 16.2929 10.5475 16.4053 10.5843 16.4784C10.659 16.627 10.6722 16.9194 10.6114 17.0814C10.5526 17.2381 9.89158 17.9092 9.71385 17.9926C9.35336 18.1619 8.94531 18.0004 8.77216 17.6201C8.61841 17.2823 8.69647 17.0623 9.13257 16.6041C9.54583 16.1699 9.70527 16.0779 10.0098 16.0977C10.1837 16.109 10.2592 16.1362 10.3733 16.2287Z" fill="black"/>
</svg>
