<svg width="32" height="32" viewBox="0 0 32 32" fill="none" xmlns="http://www.w3.org/2000/svg">
<mask id="mask0_103_1008" style="mask-type:alpha" maskUnits="userSpaceOnUse" x="0" y="0" width="32" height="32">
<rect width="32" height="32" fill="#D9D9D9"/>
</mask>
<g mask="url(#mask0_103_1008)">
<path d="M18.4999 29.3333H13.4999C13.1666 29.3333 12.8777 29.2222 12.6333 29C12.3888 28.7778 12.2444 28.5 12.1999 28.1667L11.7999 25.0667C11.511 24.9555 11.239 24.8222 10.9839 24.6667C10.7279 24.5111 10.4777 24.3444 10.2333 24.1667L7.33325 25.3667C7.02214 25.4778 6.71103 25.4889 6.39992 25.4C6.08881 25.3111 5.84436 25.1222 5.66659 24.8333L3.19992 20.5333C3.02214 20.2444 2.96659 19.9333 3.03325 19.6C3.09992 19.2667 3.26659 19 3.53325 18.8L6.03325 16.9C6.01103 16.7444 5.99992 16.5942 5.99992 16.4493V15.5493C5.99992 15.4053 6.01103 15.2555 6.03325 15.1L3.53325 13.2C3.26659 13 3.09992 12.7333 3.03325 12.4C2.96659 12.0667 3.02214 11.7555 3.19992 11.4667L5.66659 7.16666C5.82214 6.85555 6.06081 6.66088 6.38259 6.58266C6.70525 6.50532 7.02214 6.52221 7.33325 6.63332L10.2333 7.83332C10.4777 7.65555 10.7333 7.48888 10.9999 7.33332C11.2666 7.17777 11.5333 7.04443 11.7999 6.93332L12.1999 3.83332C12.2444 3.49999 12.3888 3.22221 12.6333 2.99999C12.8777 2.77777 13.1666 2.66666 13.4999 2.66666H18.4999C18.8333 2.66666 19.1221 2.77777 19.3666 2.99999C19.611 3.22221 19.7555 3.49999 19.7999 3.83332L20.1999 6.93332C20.4888 7.04443 20.7613 7.17777 21.0173 7.33332C21.2724 7.48888 21.5221 7.65555 21.7666 7.83332L24.6666 6.63332C24.9777 6.52221 25.2888 6.5111 25.5999 6.59999C25.911 6.68888 26.1555 6.87777 26.3333 7.16666L28.7999 11.4667C28.9777 11.7555 29.0333 12.0667 28.9666 12.4C28.8999 12.7333 28.7333 13 28.4666 13.2L25.9666 15.1C25.9888 15.2555 25.9999 15.4053 25.9999 15.5493V16.4493C25.9999 16.5942 25.9777 16.7444 25.9333 16.9L28.4333 18.8C28.6999 19 28.8666 19.2667 28.9333 19.6C28.9999 19.9333 28.9444 20.2444 28.7666 20.5333L26.2999 24.8C26.1221 25.0889 25.8724 25.2835 25.5506 25.384C25.2279 25.4835 24.911 25.4778 24.5999 25.3667L21.7666 24.1667C21.5221 24.3444 21.2666 24.5111 20.9999 24.6667C20.7333 24.8222 20.4666 24.9555 20.1999 25.0667L19.7999 28.1667C19.7555 28.5 19.611 28.7778 19.3666 29C19.1221 29.2222 18.8333 29.3333 18.4999 29.3333ZM16.0666 20.6667C17.3555 20.6667 18.4555 20.2111 19.3666 19.3C20.2777 18.3889 20.7333 17.2889 20.7333 16C20.7333 14.7111 20.2777 13.6111 19.3666 12.7C18.4555 11.7889 17.3555 11.3333 16.0666 11.3333C14.7555 11.3333 13.6497 11.7889 12.7493 12.7C11.8497 13.6111 11.3999 14.7111 11.3999 16C11.3999 17.2889 11.8497 18.3889 12.7493 19.3C13.6497 20.2111 14.7555 20.6667 16.0666 20.6667Z" fill="#959CB2"/>
</g>
</svg>
