<svg width="54" height="54" viewBox="0 0 54 54" fill="none" xmlns="http://www.w3.org/2000/svg">
<path d="M45 18C44.15 18 43.438 17.712 42.864 17.136C42.288 16.562 42 15.85 42 15V12H39C38.15 12 37.438 11.713 36.864 11.139C36.288 10.563 36 9.85 36 9C36 8.15 36.288 7.437 36.864 6.861C37.438 6.287 38.15 6 39 6H42V3C42 2.15 42.288 1.437 42.864 0.861C43.438 0.287 44.15 0 45 0C45.85 0 46.562 0.287 47.136 0.861C47.712 1.437 48 2.15 48 3V6H51C51.85 6 52.562 6.287 53.136 6.861C53.712 7.437 54 8.15 54 9C54 9.85 53.712 10.563 53.136 11.139C52.562 11.713 51.85 12 51 12H48V15C48 15.85 47.712 16.562 47.136 17.136C46.562 17.712 45.85 18 45 18ZM12 42H42C42.6 42 43.05 41.725 43.35 41.175C43.65 40.625 43.6 40.1 43.2 39.6L34.95 28.575C34.65 28.175 34.25 27.975 33.75 27.975C33.25 27.975 32.85 28.175 32.55 28.575L24.75 39L19.2 31.575C18.9 31.175 18.5 30.975 18 30.975C17.5 30.975 17.1 31.175 16.8 31.575L10.8 39.6C10.4 40.1 10.35 40.625 10.65 41.175C10.95 41.725 11.4 42 12 42ZM6 54C4.35 54 2.937 53.413 1.761 52.239C0.587 51.063 0 49.65 0 48V6C0 4.35 0.587 2.937 1.761 1.761C2.937 0.587 4.35 0 6 0H30V15C30 15.85 30.288 16.562 30.864 17.136C31.438 17.712 32.15 18 33 18H36V21C36 21.85 36.288 22.562 36.864 23.136C37.438 23.712 38.15 24 39 24H54V48C54 49.65 53.413 51.063 52.239 52.239C51.063 53.413 49.65 54 48 54H6Z" fill="#4775FF"/>
</svg>
