<svg width="157" height="32" viewBox="0 0 157 32" fill="none" xmlns="http://www.w3.org/2000/svg">
<path d="M5.33333 0.5H26.6667C29.336 0.5 31.5 2.66396 31.5 5.33333V26.6667C31.5 29.336 29.336 31.5 26.6667 31.5H5.33333C2.66396 31.5 0.5 29.336 0.5 26.6667V5.33333C0.5 2.66396 2.66396 0.5 5.33333 0.5Z" fill="white" stroke="black"/>
<path fill-rule="evenodd" clip-rule="evenodd" d="M11.2274 6.68943C9.87242 6.84441 8.71385 7.42565 7.76754 8.42519C7.01289 9.2223 6.552 10.1141 6.31227 11.2411C6.19208 11.8062 6.19223 12.896 6.31261 13.4621C6.53818 14.5227 6.96942 15.3892 7.67578 16.201L7.97118 16.5405L7.83305 16.7041C7.2763 17.3635 7.25724 18.3995 7.78801 19.1536C8.06845 19.5521 8.47707 19.814 8.99846 19.9296C9.0844 19.9486 9.09496 19.9716 9.10239 20.1561C9.14203 21.1398 9.87311 21.9269 10.8765 22.0662L11.0517 22.0905L11.096 22.3316C11.22 23.0082 11.7678 23.6229 12.4365 23.8363C12.6697 23.9107 13.0822 23.9376 13.4289 23.9009C13.5021 23.8931 13.5307 23.9273 13.6051 24.1115C13.9514 24.969 14.9055 25.4839 15.7964 25.294C16.2972 25.1873 16.4628 25.08 17.0572 24.4776C17.6666 23.8599 17.8073 23.6326 17.8907 23.1305L17.9383 22.8442L18.1594 22.816C18.4934 22.7735 18.9066 22.5541 19.1977 22.2648C19.4844 21.9798 19.6941 21.5776 19.7603 21.1856L19.8023 20.9375L20.0646 20.8918C20.5566 20.8063 21.0449 20.4861 21.3355 20.0583C21.5071 19.8058 21.6639 19.3866 21.6639 19.1806C21.6639 19.02 21.7051 18.9843 21.8907 18.9843C22.0283 18.9843 22.4004 18.8537 22.5984 18.7359C22.8379 18.5934 23.0962 18.3468 23.2466 18.117C23.416 17.8583 23.5772 17.3813 23.5772 17.1385C23.5772 16.9556 23.5783 16.954 24.0854 16.4277C24.9931 15.4857 25.4669 14.5941 25.7063 13.3773C25.8016 12.893 25.8016 11.8084 25.7063 11.3241C25.4699 10.1225 24.9801 9.19045 24.1344 8.33317C23.4487 7.63796 22.8079 7.23517 21.9189 6.94054C20.7752 6.56157 19.4779 6.57643 18.3295 6.9817C17.5748 7.24801 16.8862 7.66903 16.326 8.20667L16.0008 8.51868L15.6824 8.21307C14.6981 7.2685 13.4142 6.72823 12.0213 6.67248C11.7583 6.66197 11.401 6.66957 11.2274 6.68943ZM20.9561 7.99187C22.5546 8.29923 23.9368 9.59025 24.3992 11.2078C24.6695 12.1536 24.5857 13.2121 24.168 14.1289C23.9919 14.5152 23.6032 15.1021 23.316 15.4154L23.0848 15.6675L20.7386 13.2938L18.3923 10.92L18.068 11.2342C17.4368 11.8456 16.8134 11.9864 16.1279 11.6725C16.0095 11.6182 15.8095 11.4641 15.6305 11.2893L15.3312 10.9968L16.1348 10.1779C17.3001 8.99024 17.6997 8.6631 18.3876 8.33325C19.2199 7.93418 20.0691 7.82134 20.9561 7.99187ZM12.4422 7.98551C13.0776 8.08462 13.5678 8.2597 14.0877 8.57322C14.3892 8.75504 14.9784 9.23995 15.0597 9.37329C15.0951 9.43116 14.988 9.55581 14.3255 10.2281L13.5499 11.0151L14.211 11.6762C14.967 12.4323 15.1837 12.6141 15.5538 12.803C16.3102 13.1892 17.3077 13.1888 18.0725 12.802L18.3278 12.6729L20.2811 14.6551C21.356 15.746 22.2524 16.6865 22.2744 16.7465C22.4772 17.2999 21.9897 17.8534 21.4309 17.7042C21.2804 17.6641 21.1048 17.5 19.8075 16.1882C19.0074 15.3791 18.3361 14.7171 18.3158 14.7171C18.2666 14.7171 17.4549 15.5388 17.4549 15.5886C17.4549 15.61 18.1078 16.291 18.9059 17.1022C20.2032 18.4208 20.3616 18.5952 20.4016 18.749C20.4818 19.0579 20.3645 19.3625 20.0999 19.5327C19.9129 19.6529 19.6616 19.6805 19.4567 19.6032C19.3974 19.5809 18.6903 18.8958 17.8853 18.0808L16.4217 16.5989L15.9723 17.0546L15.5229 17.5102L16.9846 18.994C17.7885 19.8101 18.4642 20.527 18.4862 20.587C18.6417 21.0111 18.3648 21.4966 17.9275 21.5667C17.7089 21.6017 17.54 21.536 17.256 21.3055C16.7793 20.9187 16.3695 20.7843 15.7808 20.8217C15.5152 20.8387 15.4269 20.8324 15.4268 20.7968C15.4267 20.6833 15.1931 20.2666 15.0211 20.0732C14.683 19.6931 14.132 19.411 13.7279 19.411H13.5674L13.5262 19.1666C13.423 18.5558 13.0015 18.0122 12.4049 17.7204C12.301 17.6696 12.1449 17.6165 12.058 17.6024C11.9711 17.5883 11.895 17.5574 11.8888 17.5338C11.8826 17.5101 11.8585 17.3424 11.8352 17.161C11.6701 15.8776 10.2631 15.0601 9.12676 15.5875L8.92591 15.6808L8.66078 15.3978C7.24217 13.8837 7.06925 11.4886 8.25671 9.80152C9.21492 8.44016 10.8392 7.73541 12.4422 7.98551ZM10.1375 16.7556C10.3266 16.8357 10.4478 16.9539 10.5332 17.1417C10.6907 17.4875 10.607 17.7173 10.1544 18.1822C9.77002 18.577 9.61211 18.674 9.35332 18.674C8.83423 18.674 8.50007 18.1288 8.72736 17.6527C8.83519 17.4269 9.48182 16.7904 9.65462 16.7399C9.84537 16.6843 9.97948 16.6886 10.1375 16.7556ZM11.8989 18.8839C12.0179 18.9469 12.1829 19.1187 12.2484 19.2478C12.3145 19.3779 12.3061 19.6929 12.2324 19.8503C12.1315 20.0659 11.4495 20.715 11.2711 20.7652C11.0634 20.8237 10.9549 20.817 10.7762 20.7347C10.4535 20.5861 10.2954 20.2558 10.3787 19.9041C10.4174 19.7402 10.4757 19.6544 10.7353 19.379C11.1457 18.9437 11.3239 18.8291 11.5907 18.8291C11.7034 18.8291 11.842 18.8538 11.8989 18.8839ZM13.8889 20.7598C14.1307 20.872 14.3062 21.2319 14.2549 21.5103C14.217 21.7154 14.1167 21.8539 13.7337 22.2295C13.3259 22.6294 13.1504 22.7088 12.8518 22.6283C12.5126 22.5368 12.3275 22.2918 12.3275 21.9345C12.3275 21.6706 12.3968 21.5456 12.7438 21.1833C13.2394 20.666 13.4884 20.574 13.8889 20.7598ZM16.3733 22.2287C16.4526 22.2929 16.5475 22.4053 16.5843 22.4784C16.659 22.627 16.6722 22.9194 16.6114 23.0814C16.5526 23.2381 15.8916 23.9092 15.7138 23.9926C15.3534 24.1619 14.9453 24.0004 14.7722 23.6201C14.6184 23.2823 14.6965 23.0623 15.1326 22.6041C15.5458 22.1699 15.7053 22.0779 16.0098 22.0977C16.1837 22.109 16.2592 22.1362 16.3733 22.2287Z" fill="black"/>
<path d="M41.464 27V7.55999H46.24C47.104 7.55999 47.88 7.63999 48.568 7.8C49.272 7.96 49.872 8.232 50.368 8.61599C50.88 8.98399 51.272 9.488 51.544 10.128C51.816 10.768 51.952 11.576 51.952 12.552C51.952 13.336 51.84 14.008 51.616 14.568C51.408 15.128 51.096 15.576 50.68 15.912C50.264 16.232 49.744 16.448 49.12 16.56C49.888 16.688 50.52 16.96 51.016 17.376C51.528 17.776 51.904 18.304 52.144 18.96C52.4 19.616 52.528 20.408 52.528 21.336C52.528 22.264 52.408 23.088 52.168 23.808C51.944 24.512 51.6 25.104 51.136 25.584C50.688 26.048 50.12 26.4 49.432 26.64C48.76 26.88 47.968 27 47.056 27H41.464ZM45.016 24.504H46.36C47.432 24.504 48.16 24.248 48.544 23.736C48.928 23.208 49.12 22.4 49.12 21.312C49.12 20.528 49.024 19.896 48.832 19.416C48.656 18.92 48.352 18.552 47.92 18.312C47.504 18.072 46.944 17.952 46.24 17.952H45.016V24.504ZM45.016 15.504H46.216C46.92 15.504 47.464 15.4 47.848 15.192C48.232 14.984 48.496 14.664 48.64 14.232C48.8 13.8 48.88 13.256 48.88 12.6C48.88 11.912 48.76 11.384 48.52 11.016C48.296 10.632 47.952 10.376 47.488 10.248C47.024 10.104 46.432 10.032 45.712 10.032H45.016V15.504Z" fill="black"/>
<path d="M60.3434 27.264C58.9674 27.264 57.8714 27.008 57.0554 26.496C56.2394 25.984 55.6554 25.248 55.3034 24.288C54.9514 23.328 54.7754 22.192 54.7754 20.88V13.608C54.7754 12.296 54.9514 11.176 55.3034 10.248C55.6554 9.304 56.2394 8.58399 57.0554 8.08799C57.8714 7.59199 58.9674 7.34399 60.3434 7.34399C61.7514 7.34399 62.8554 7.59199 63.6554 8.08799C64.4714 8.58399 65.0554 9.304 65.4074 10.248C65.7754 11.176 65.9594 12.296 65.9594 13.608V20.904C65.9594 22.2 65.7754 23.328 65.4074 24.288C65.0554 25.232 64.4714 25.968 63.6554 26.496C62.8554 27.008 61.7514 27.264 60.3434 27.264ZM60.3434 24.648C60.9354 24.648 61.3674 24.52 61.6394 24.264C61.9274 24.008 62.1194 23.656 62.2154 23.208C62.3114 22.76 62.3594 22.272 62.3594 21.744V12.792C62.3594 12.248 62.3114 11.76 62.2154 11.328C62.1194 10.896 61.9274 10.56 61.6394 10.32C61.3674 10.064 60.9354 9.936 60.3434 9.936C59.7834 9.936 59.3594 10.064 59.0714 10.32C58.7834 10.56 58.5914 10.896 58.4954 11.328C58.3994 11.76 58.3514 12.248 58.3514 12.792V21.744C58.3514 22.272 58.3914 22.76 58.4714 23.208C58.5674 23.656 58.7594 24.008 59.0474 24.264C59.3354 24.52 59.7674 24.648 60.3434 24.648Z" fill="black"/>
<path d="M67.4828 27V24.456C67.9308 24.472 68.3068 24.448 68.6108 24.384C68.9308 24.304 69.1948 24.136 69.4028 23.88C69.6268 23.624 69.8108 23.232 69.9548 22.704C70.0988 22.16 70.2188 21.432 70.3148 20.52C70.4108 19.608 70.5148 18.448 70.6268 17.04L71.2508 7.55999H80.7068V27H77.1788V10.224H74.3948L73.9628 17.472C73.8668 18.896 73.7548 20.152 73.6268 21.24C73.5148 22.328 73.3308 23.256 73.0748 24.024C72.8348 24.776 72.4908 25.384 72.0428 25.848C71.5948 26.312 71.0028 26.64 70.2668 26.832C69.5308 27.008 68.6028 27.064 67.4828 27Z" fill="black"/>
<path d="M89.2296 27.264C87.8536 27.264 86.7576 27.008 85.9416 26.496C85.1256 25.984 84.5416 25.248 84.1896 24.288C83.8376 23.328 83.6616 22.192 83.6616 20.88V13.608C83.6616 12.296 83.8376 11.176 84.1896 10.248C84.5416 9.304 85.1256 8.58399 85.9416 8.08799C86.7576 7.59199 87.8536 7.34399 89.2296 7.34399C90.6376 7.34399 91.7416 7.59199 92.5416 8.08799C93.3576 8.58399 93.9416 9.304 94.2936 10.248C94.6616 11.176 94.8456 12.296 94.8456 13.608V20.904C94.8456 22.2 94.6616 23.328 94.2936 24.288C93.9416 25.232 93.3576 25.968 92.5416 26.496C91.7416 27.008 90.6376 27.264 89.2296 27.264ZM89.2296 24.648C89.8216 24.648 90.2536 24.52 90.5256 24.264C90.8136 24.008 91.0056 23.656 91.1016 23.208C91.1976 22.76 91.2456 22.272 91.2456 21.744V12.792C91.2456 12.248 91.1976 11.76 91.1016 11.328C91.0056 10.896 90.8136 10.56 90.5256 10.32C90.2536 10.064 89.8216 9.936 89.2296 9.936C88.6696 9.936 88.2456 10.064 87.9576 10.32C87.6696 10.56 87.4776 10.896 87.3816 11.328C87.2856 11.76 87.2376 12.248 87.2376 12.792V21.744C87.2376 22.272 87.2776 22.76 87.3576 23.208C87.4536 23.656 87.6456 24.008 87.9336 24.264C88.2216 24.52 88.6536 24.648 89.2296 24.648Z" fill="black"/>
<path d="M97.7611 27V7.55999H101.289V15.696H105.249V7.55999H108.801V27H105.249V18.216H101.289V27H97.7611Z" fill="black"/>
<path d="M113.96 27V10.176H110.864V7.55999H120.56V10.176H117.512V27H113.96Z" fill="black"/>
<path d="M122.568 27V7.55999H130.728V10.056H126.12V15.648H129.744V18.12H126.12V24.552H130.776V27H122.568Z" fill="black"/>
<path d="M133.074 27V7.55999H138.786C139.954 7.55999 140.898 7.77599 141.618 8.20799C142.354 8.63999 142.89 9.27199 143.226 10.104C143.578 10.92 143.754 11.912 143.754 13.08C143.754 14.344 143.538 15.368 143.106 16.152C142.674 16.92 142.066 17.48 141.282 17.832C140.514 18.184 139.602 18.36 138.546 18.36H136.626V27H133.074ZM136.626 15.864H137.97C138.61 15.864 139.106 15.776 139.458 15.6C139.826 15.408 140.074 15.112 140.202 14.712C140.346 14.296 140.418 13.744 140.418 13.056C140.418 12.352 140.362 11.784 140.25 11.352C140.154 10.904 139.93 10.576 139.578 10.368C139.242 10.16 138.706 10.056 137.97 10.056H136.626V15.864Z" fill="black"/>
<path d="M144.634 27L148.522 7.55999H152.314L156.202 27H152.914L152.146 22.512H148.762L147.97 27H144.634ZM149.122 20.256H151.762L150.442 12.096L149.122 20.256Z" fill="black"/>
</svg>
